# xmcd CD database file
#
# Track frame offsets:
#	150
#	17903
#	36743
#	64073
#	89523
#	124660
#	167515
#	183543
#	199338
#	212280
#	230065
#	247475
#
# Disc length: 3557 seconds
#
# Revision: 0
# Processed by: cddbd v1.5.2PL0 Copyright (c) Steve Scherf et al.
# Submitted via: CDex 1.70beta1
#
DISCID=b50de30c
DTITLE=Buckner-Stewart-Jones and Turner - Live - Parigi - 19 Aprile 1971
DYEAR=1900
DGENRE=Jazz
TTITLE0=Swingin In Paris
TTITLE1=Feelin Sorta Of Wellington
TTITLE2=Glady's Dance
TTITLE3=Stardust
TTITLE4=Play Fiddle Play
TTITLE5=I Found A New Hat
TTITLE6=Hide And Go Seek With Me
TTITLE7=Cherry Reed
TTITLE8=Flip Flop and Fly
TTITLE9=Honey Hush
TTITLE10=Shake Rattle And Roll
TTITLE11=Sweet Georgia Brown
EXTD=
EXTT0=
EXTT1=
EXTT2=
EXTT3=
EXTT4=
EXTT5=
EXTT6=
EXTT7=
EXTT8=
EXTT9=
EXTT10=
EXTT11=
PLAYORDER=
